<svg width="178" height="112" viewBox="0 0 178 112" fill="none" xmlns="http://www.w3.org/2000/svg">
<mask id="mask0" style="mask-type:alpha" maskUnits="userSpaceOnUse" x="2" y="22" width="175" height="63">
<path d="M15.296 83.32C11.1147 83.32 7.85067 82.1467 5.504 79.8C3.2 77.4107 2.048 74.2747 2.048 70.392C2.048 66.936 2.73067 63.9067 4.096 61.304C5.46133 58.7013 7.232 56.696 9.408 55.288C11.584 53.88 13.8667 53.176 16.256 53.176C18.6027 53.176 20.416 53.88 21.696 55.288C23.0187 56.6533 23.68 58.424 23.68 60.6C23.68 62.392 23.2747 63.9067 22.464 65.144C21.696 66.3813 20.672 67 19.392 67C18.5813 67 17.92 66.808 17.408 66.424C16.9387 66.04 16.704 65.5067 16.704 64.824C16.704 64.5253 16.7467 64.184 16.832 63.8C16.9173 63.416 16.9813 63.1387 17.024 62.968C17.2373 62.328 17.344 61.7307 17.344 61.176C17.344 60.6213 17.1947 60.1947 16.896 59.896C16.64 59.5973 16.256 59.448 15.744 59.448C14.7627 59.448 13.8453 59.896 12.992 60.792C12.1387 61.6453 11.456 62.8187 10.944 64.312C10.432 65.8053 10.176 67.448 10.176 69.24C10.176 74.1893 12.3307 76.664 16.64 76.664C18.3893 76.664 20.2667 76.088 22.272 74.936C24.32 73.7413 26.3253 71.9707 28.288 69.624C28.8 69.0267 29.376 68.728 30.016 68.728C30.5707 68.728 30.9973 68.984 31.296 69.496C31.6373 70.008 31.808 70.712 31.808 71.608C31.808 73.2293 31.4027 74.552 30.592 75.576C28.5867 78.0507 26.176 79.9707 23.36 81.336C20.5867 82.6587 17.8987 83.32 15.296 83.32ZM33.1625 83.32C31.2425 83.32 29.6638 82.4453 28.4265 80.696C27.2318 78.904 26.6345 76.6853 26.6345 74.04C26.6345 70.84 26.8478 67.9173 27.2745 65.272C27.7012 62.584 28.4052 59.7467 29.3865 56.76C29.8132 55.48 30.4105 54.5627 31.1785 54.008C31.9465 53.4533 33.1625 53.176 34.8265 53.176C35.7652 53.176 36.4052 53.3253 36.7465 53.624C37.1305 53.9227 37.3225 54.3707 37.3225 54.968C37.3225 55.3093 37.0878 56.4613 36.6185 58.424C36.1918 60.0027 35.8505 61.432 35.5945 62.712C34.7412 67.192 34.3145 70.1787 34.3145 71.672C34.3145 72.568 34.4212 73.208 34.6345 73.592C34.8478 73.9333 35.1892 74.104 35.6585 74.104C36.2985 74.104 37.0878 73.464 38.0265 72.184C39.0078 70.904 40.0318 68.9627 41.0985 66.36C42.2078 63.7573 43.2745 60.5573 44.2985 56.76C44.6398 55.48 45.1518 54.5627 45.8345 54.008C46.5598 53.4533 47.6265 53.176 49.0345 53.176C50.0158 53.176 50.6985 53.304 51.0825 53.56C51.4665 53.7733 51.6585 54.2 51.6585 54.84C51.6585 55.9067 51.1252 58.8293 50.0585 63.608C48.8638 69.0693 48.2665 72.44 48.2665 73.72C48.2665 74.5307 48.4372 75.1707 48.7785 75.64C49.1198 76.0667 49.5678 76.28 50.1225 76.28C50.9758 76.28 51.9785 75.768 53.1305 74.744C54.3252 73.6773 55.9038 71.9707 57.8665 69.624C58.3785 69.0267 58.9545 68.728 59.5945 68.728C60.1492 68.728 60.5758 68.984 60.8745 69.496C61.2158 70.008 61.3865 70.712 61.3865 71.608C61.3865 73.3147 60.9812 74.6373 60.1705 75.576C58.3358 77.8373 56.3518 79.6933 54.2185 81.144C52.1278 82.5947 49.7385 83.32 47.0505 83.32C45.0025 83.32 43.4878 82.5307 42.5065 80.952C41.5678 79.3733 41.0985 77.1547 41.0985 74.296C40.3732 77.1973 39.2852 79.4373 37.8345 81.016C36.3838 82.552 34.8265 83.32 33.1625 83.32ZM68.101 84.728C65.8823 84.728 64.1757 84.216 62.981 83.192C61.829 82.168 61.253 81.016 61.253 79.736C61.253 78.6267 61.6583 77.6667 62.469 76.856C63.2797 76.0453 64.4743 75.64 66.053 75.64C66.6077 75.64 67.2477 75.704 67.973 75.832C68.741 75.9173 69.317 75.9813 69.701 76.024C69.6583 74.9147 69.4023 73.8693 68.933 72.888C68.5063 71.9067 67.9517 70.968 67.269 70.072C66.5863 69.1333 65.9463 68.3227 65.349 67.64C64.0263 70.1573 62.7037 72.248 61.381 73.912C60.101 75.576 58.693 77.1547 57.157 78.648C56.389 79.416 55.5783 79.8 54.725 79.8C54.0423 79.8 53.4877 79.5653 53.061 79.096C52.6343 78.584 52.421 77.9653 52.421 77.24C52.421 76.3867 52.7197 75.5973 53.317 74.872L54.149 73.848C56.4957 70.9467 58.2663 68.5573 59.461 66.68C60.1863 65.4427 61.0397 63.8 62.021 61.752C63.0023 59.6613 63.9623 57.5067 64.901 55.288C65.7117 53.4107 67.397 52.472 69.957 52.472C71.1517 52.472 71.9837 52.5787 72.453 52.792C72.9223 53.0053 73.157 53.3467 73.157 53.816C73.157 54.072 73.0717 54.4773 72.901 55.032C72.7303 55.5867 72.4957 56.1413 72.197 56.696C71.429 58.232 71.045 59.5333 71.045 60.6C71.045 61.24 71.2583 61.944 71.685 62.712C72.1543 63.48 72.8583 64.44 73.797 65.592C75.1623 67.384 76.1863 68.92 76.869 70.2C77.5943 71.4373 77.957 72.8027 77.957 74.296C77.957 74.7227 77.9143 75.32 77.829 76.088C79.9197 75.2773 82.373 73.1227 85.189 69.624C85.701 69.0267 86.277 68.728 86.917 68.728C87.4717 68.728 87.8983 68.984 88.197 69.496C88.5383 70.008 88.709 70.712 88.709 71.608C88.709 73.2293 88.3037 74.552 87.493 75.576C85.3597 78.2213 83.3117 80.0347 81.349 81.016C79.429 81.9547 77.0397 82.4667 74.181 82.552C72.4743 84.0027 70.4477 84.728 68.101 84.728ZM88.0535 83.32C86.4322 83.32 85.2802 82.4667 84.5975 80.76C83.9575 79.0533 83.6375 76.3227 83.6375 72.568C83.6375 67.0213 84.4268 61.752 86.0055 56.76C86.3895 55.5227 87.0082 54.6267 87.8615 54.072C88.7575 53.4747 89.9948 53.176 91.5735 53.176C92.4268 53.176 93.0242 53.2827 93.3655 53.496C93.7068 53.7093 93.8775 54.1147 93.8775 54.712C93.8775 55.3947 93.5575 56.9307 92.9175 59.32C92.4908 61.0267 92.1495 62.52 91.8935 63.8C91.6375 65.0373 91.4242 66.5947 91.2535 68.472C92.4055 65.144 93.7708 62.328 95.3495 60.024C96.9708 57.72 98.6135 56.0133 100.278 54.904C101.984 53.752 103.584 53.176 105.078 53.176C106.571 53.176 107.616 53.5173 108.214 54.2C108.854 54.8827 109.174 55.928 109.174 57.336C109.174 58.7013 108.768 61.176 107.958 64.76C107.616 66.296 107.382 67.448 107.254 68.216C109.387 62.968 111.755 59.1493 114.358 56.76C116.96 54.3707 119.392 53.176 121.654 53.176C124.427 53.176 125.814 54.5627 125.814 57.336C125.814 59 125.344 62.008 124.406 66.36C123.595 70.072 123.19 72.5253 123.19 73.72C123.19 75.4267 123.808 76.28 125.046 76.28C125.899 76.28 126.902 75.768 128.054 74.744C129.248 73.6773 130.827 71.9707 132.79 69.624C133.302 69.0267 133.878 68.728 134.518 68.728C135.072 68.728 135.499 68.984 135.798 69.496C136.139 70.008 136.31 70.712 136.31 71.608C136.31 73.3147 135.904 74.6373 135.094 75.576C133.259 77.8373 131.275 79.6933 129.142 81.144C127.051 82.5947 124.662 83.32 121.974 83.32C119.798 83.32 118.155 82.7013 117.046 81.464C115.936 80.184 115.382 78.3493 115.382 75.96C115.382 74.7653 115.68 72.632 116.278 69.56C116.832 66.872 117.11 65.016 117.11 63.992C117.11 63.3093 116.875 62.968 116.406 62.968C115.851 62.968 115.062 63.6933 114.038 65.144C113.014 66.552 111.99 68.4293 110.966 70.776C109.942 73.1227 109.11 75.5973 108.47 78.2C108 80.248 107.446 81.6133 106.806 82.296C106.208 82.9787 105.227 83.32 103.862 83.32C102.454 83.32 101.387 82.6587 100.662 81.336C99.9788 79.9707 99.6375 78.328 99.6375 76.408C99.6375 74.7867 99.8508 72.44 100.278 69.368C100.619 66.6373 100.79 64.8453 100.79 63.992C100.79 63.3093 100.555 62.968 100.086 62.968C99.4455 62.968 98.6348 63.736 97.6535 65.272C96.6722 66.808 95.7122 68.7707 94.7735 71.16C93.8775 73.5493 93.1522 75.896 92.5975 78.2C92.1282 80.2053 91.5735 81.5707 90.9335 82.296C90.3362 82.9787 89.3762 83.32 88.0535 83.32ZM139.519 48.952C137.727 48.952 136.383 48.5467 135.487 47.736C134.591 46.8827 134.143 45.7093 134.143 44.216C134.143 42.7227 134.719 41.4853 135.871 40.504C137.065 39.48 138.537 38.968 140.287 38.968C141.865 38.968 143.145 39.352 144.127 40.12C145.108 40.888 145.599 41.976 145.599 43.384C145.599 45.0907 145.044 46.456 143.935 47.48C142.825 48.4613 141.353 48.952 139.519 48.952ZM139.007 83.32C136.233 83.32 134.207 82.3387 132.927 80.376C131.689 78.4133 131.071 75.8107 131.071 72.568C131.071 70.648 131.305 68.1947 131.775 65.208C132.287 62.1787 132.927 59.3627 133.695 56.76C134.079 55.3947 134.591 54.456 135.231 53.944C135.871 53.432 136.895 53.176 138.303 53.176C140.479 53.176 141.567 53.9013 141.567 55.352C141.567 56.4187 141.161 58.8933 140.351 62.776C139.327 67.4693 138.815 70.648 138.815 72.312C138.815 73.592 138.985 74.5733 139.327 75.256C139.668 75.9387 140.244 76.28 141.055 76.28C141.823 76.28 142.783 75.7467 143.935 74.68C145.087 73.6133 146.623 71.928 148.543 69.624C149.055 69.0267 149.631 68.728 150.271 68.728C150.825 68.728 151.252 68.984 151.551 69.496C151.892 70.008 152.063 70.712 152.063 71.608C152.063 73.3147 151.657 74.6373 150.847 75.576C146.623 80.7387 142.676 83.32 139.007 83.32ZM174.085 76.344C175.834 76.6853 176.708 77.6453 176.708 79.224C176.708 80.2907 176.218 81.2507 175.237 82.104C174.298 82.9147 172.933 83.32 171.141 83.32C168.069 83.32 165.551 82.3813 163.589 80.504C161.669 78.584 160.708 76.088 160.708 73.016C160.708 71.352 161.562 70.1573 163.269 69.432C165.146 68.6213 166.49 67.768 167.301 66.872C168.111 65.9333 168.517 64.8027 168.517 63.48C168.517 62.712 168.346 62.136 168.005 61.752C167.706 61.368 167.322 61.176 166.853 61.176C165.701 61.176 164.421 62.008 163.013 63.672C161.647 65.336 160.367 67.4907 159.173 70.136C157.978 72.7387 157.039 75.4267 156.357 78.2C155.887 80.2053 155.333 81.5707 154.693 82.296C154.095 82.9787 153.135 83.32 151.812 83.32C150.49 83.32 149.509 82.8507 148.869 81.912C148.271 80.9307 147.866 79.4373 147.653 77.432C147.439 75.4267 147.333 72.4827 147.333 68.6C147.333 62.0293 147.994 55.1813 149.317 48.056C150.682 40.9307 152.666 34.9573 155.269 30.136C157.914 25.272 161.071 22.84 164.741 22.84C166.703 22.84 168.282 23.6933 169.477 25.4C170.714 27.064 171.333 29.24 171.333 31.928C171.333 36.2373 170.074 40.7173 167.557 45.368C165.039 49.976 160.943 55.3733 155.269 61.56C155.141 63.7787 155.077 66.0613 155.077 68.408C157.125 63.0747 159.471 59.2133 162.117 56.824C164.762 54.392 167.237 53.176 169.541 53.176C171.674 53.176 173.381 53.9013 174.661 55.352C175.983 56.8027 176.645 58.5947 176.645 60.728C176.645 63.0747 176.047 65.2293 174.853 67.192C173.658 69.1547 171.61 70.904 168.709 72.44C168.965 73.72 169.477 74.616 170.245 75.128C171.055 75.5973 172.335 76.0027 174.085 76.344ZM163.397 29.176C162.629 29.176 161.775 30.2853 160.837 32.504C159.898 34.68 158.981 37.6453 158.085 41.4C157.231 45.112 156.527 49.1653 155.973 53.56C158.618 50.4453 160.794 47.0533 162.501 43.384C164.25 39.7147 165.125 36.3867 165.125 33.4C165.125 32.0347 164.975 30.9893 164.677 30.264C164.378 29.5387 163.951 29.176 163.397 29.176Z" fill="black"/>
</mask>
<g mask="url(#mask0)">
<path d="M19 67.5C20.6667 63.8334 22.4 55.7 16 56.5C14.1667 56.5 10 58.5 8.00002 62.5C6.33336 65.6667 5 72 8.00002 76C8.16669 77.1667 10 78.8 16 80C18.3334 79.8334 24.7 78.6 27.5 75C28.3334 74.5 30.5 73.5 32.5 69.5C33.1667 66.1667 33.5 57.8 33.5 55C33.5 51.5 27.5 76 31.5 80C32.1667 81.3334 35.4 80.9 43 68.5L49.5 53C47.1667 61.3334 42.4 80 46 80C49.1667 80.1667 56.9 77.7001 62.5 66.5L71.5 51C69.6667 53 65.1 62.1001 69.5 66.5C71.3334 68.5 74.8 73 74 75C73 77.5 75.5 79 66 83C64.8334 82.1667 63.2 79.2 66 78C69.3334 79 76.9 80.4 80.5 78C82.6667 76.5 87.2 73 88 71C87.6667 68.1667 88.7 58 91.5 52C89.8334 55 86 67.2 88 80C88.8334 80.5 90.5 80.2 90.5 75C92.8334 69.1667 97.1 57.7 99.5 58.5C99.5 57.8334 101.5 56.5 105.5 56.5C106.333 56.8334 106 61.6 102 78C102 79.3334 103.5 81.6 105.5 80C106.5 76.5 108.8 68.9001 110 66.5C111.5 63.6667 115.7 57.7 120.5 56.5C121.833 56 123.7 57.7 120.5 68.5C119.5 72.3334 118.1 80 120.5 80C121.833 80.5 125.9 80.2 131.5 75C132.667 73.5 135.3 70.1 136.5 68.5C137.7 66.9 138 56.8334 138 53C136.5 60.1667 134.1 77.2 136.5 80C137 81.1667 140 81.8 148 75L151.5 71V60C153.667 59 159.5 54.4 165.5 44C168 38.3333 171.5 26.9 165.5 26.5C163.833 25.8333 159.8 26.2 157 33C155.833 35.8333 154.1 43.5 152.5 51.5C151.667 59.6667 149.5 76.8001 151.5 80C152 80.5 153.2 80.2 154 75C155.333 71.8333 158.4 65.1 160 63.5C162 60.5 166.5 56.5 169.5 56.5C172.5 56.5001 172.968 59.1764 172.195 61C171.421 62.8236 174.886 60.116 171 66.5C170.833 67.3333 169.3 69.6 164.5 72C164 74.6667 165.6 80 176 80L200 78L207 -3L133.5 -5.5L138 42.5M138 42.5C137.5 42.8333 136.8 43.9 138 45.5C139.2 47.1 141.5 46.1667 142.5 45.5L141.5 42L138 42.5Z" stroke="#FF0000" stroke-width="9"/>
</g>
</svg>
